<svg width="32" height="32" viewBox="0 0 32 32" fill="none" xmlns="http://www.w3.org/2000/svg">
<rect width="32" height="32" rx="16" fill="#0076CE"/>
<path d="M23.2611 10.5685L22.9075 10.9221V10.9221L23.2611 10.5685ZM21.4313 8.73878L21.785 8.38511L21.7757 8.37628L21.4313 8.73878ZM21.4313 8.73877L21.0777 9.09244L21.0869 9.10127L21.4313 8.73877ZM20.8213 8.04033L20.3844 8.28342L20.3844 8.28342L20.8213 8.04033ZM21.1154 6.76904C21.1154 6.4929 20.8916 6.26904 20.6154 6.26904C20.3393 6.26904 20.1154 6.4929 20.1154 6.76904H20.6154H21.1154ZM20.6779 7.6943L20.1971 7.83136V7.83136L20.6779 7.6943ZM25.2308 11.8844C25.507 11.8844 25.7308 11.6606 25.7308 11.3844C25.7308 11.1083 25.507 10.8844 25.2308 10.8844V11.3844V11.8844ZM24.3056 11.3219L24.4426 10.8411H24.4426L24.3056 11.3219ZM23.9595 11.1786L24.2026 10.7417L24.2026 10.7417L23.9595 11.1786ZM20.969 16.6367C21.1643 16.4414 21.1643 16.1248 20.969 15.9296C20.7737 15.7343 20.4572 15.7343 20.2619 15.9296L20.6154 16.2831L20.969 16.6367ZM16.0667 20.8319L15.7131 20.4783V20.4783L16.0667 20.8319ZM11.168 15.9332L11.5215 16.2868L11.168 15.9332ZM16.0703 11.738C16.2656 11.5427 16.2656 11.2261 16.0703 11.0309C15.875 10.8356 15.5585 10.8356 15.3632 11.0309L15.7168 11.3844L16.0703 11.738ZM11.168 20.8319L11.5215 20.4783L11.5215 20.4783L11.168 20.8319ZM9.57655 18.7687L9.08616 18.8662V18.8663L9.57655 18.7687ZM9.57655 17.9964L10.0669 18.0939L10.0669 18.0939L9.57655 17.9964ZM14.0035 22.4233L13.9059 21.9329H13.9059L14.0035 22.4233ZM13.2312 22.4233L13.3287 21.9329L13.2312 22.4233ZM15.4305 10.1078C15.2353 9.91254 14.9187 9.91254 14.7234 10.1078C14.5282 10.3031 14.5282 10.6196 14.7234 10.8149L15.077 10.4614L15.4305 10.1078ZM21.185 17.2764C21.3802 17.4717 21.6968 17.4717 21.8921 17.2764C22.0873 17.0812 22.0873 16.7646 21.8921 16.5693L21.5385 16.9229L21.185 17.2764ZM12.5984 22.5333C12.8231 22.3728 12.8751 22.0605 12.7146 21.8358C12.5541 21.6111 12.2418 21.5591 12.0171 21.7196L12.3077 22.1264L12.5984 22.5333ZM11.2282 22.8975L10.9376 22.4906V22.4907L11.2282 22.8975ZM9.10235 20.7716L9.50922 21.0622L9.10235 20.7716ZM10.2803 19.9827C10.4408 19.758 10.3888 19.4458 10.164 19.2853C9.93934 19.1247 9.62707 19.1768 9.46656 19.4015L9.87343 19.6921L10.2803 19.9827ZM9.26485 22.735L8.91129 23.0886L9.26485 22.735ZM8.64088 21.9368L8.15566 22.0575V22.0575L8.64088 21.9368ZM8.6181 21.6615L9.11655 21.7008L8.6181 21.6615ZM10.3383 23.3818L10.3776 23.8802H10.3776L10.3383 23.3818ZM10.063 23.359L10.1837 22.8738L10.1837 22.8738L10.063 23.359ZM17.0723 11.9171C16.8567 12.0896 16.8217 12.4042 16.9942 12.6199C17.1667 12.8355 17.4814 12.8704 17.697 12.6979L17.3847 12.3075L17.0723 11.9171ZM22.3124 9.00563C22.528 8.83313 22.563 8.51848 22.3905 8.30285C22.218 8.08722 21.9033 8.05226 21.6877 8.22476L22.0001 8.6152L22.3124 9.00563ZM19.3019 14.3029C19.1294 14.5185 19.1644 14.8331 19.38 15.0056C19.5956 15.1781 19.9103 15.1432 20.0828 14.9275L19.6924 14.6152L19.3019 14.3029ZM23.7751 10.3122C23.9476 10.0965 23.9127 9.78188 23.697 9.60938C23.4814 9.43687 23.1667 9.47183 22.9942 9.68747L23.3847 9.99981L23.7751 10.3122ZM9.43053 23.2764C9.6258 23.0812 9.6258 22.7646 9.43053 22.5693C9.23527 22.3741 8.91869 22.3741 8.72343 22.5693L9.07698 22.9229L9.43053 23.2764ZM6.41573 24.877C6.22047 25.0723 6.22047 25.3889 6.41573 25.5841C6.611 25.7794 6.92758 25.7794 7.12284 25.5841L6.76929 25.2306L6.41573 24.877ZM23.2611 10.5685L23.6146 10.215L23.4305 10.0309L23.077 10.3844L22.7234 10.738L22.9075 10.9221L23.2611 10.5685ZM23.077 10.3844L23.4305 10.0309L21.969 8.56934L21.6154 8.92289L21.2619 9.27644L22.7234 10.738L23.077 10.3844ZM21.6154 8.92289L21.969 8.56934L21.7849 8.38523L21.4313 8.73878L21.0778 9.09233L21.2619 9.27644L21.6154 8.92289ZM21.4313 8.73878L21.7757 8.37628L21.7757 8.37627L21.4313 8.73877L21.0869 9.10127L21.087 9.10128L21.4313 8.73878ZM21.4313 8.73877L21.7849 8.38522C21.4321 8.03247 21.3272 7.92124 21.2582 7.79724L20.8213 8.04033L20.3844 8.28342C20.5371 8.55794 20.7649 8.77949 21.0778 9.09232L21.4313 8.73877ZM20.6154 6.76904H20.1154V6.76906H20.6154H21.1154V6.76904H20.6154ZM20.6154 6.76906H20.1154C20.1154 7.21147 20.111 7.52925 20.1971 7.83136L20.6779 7.6943L21.1588 7.55723C21.1199 7.42077 21.1154 7.26791 21.1154 6.76906H20.6154ZM20.8213 8.04033L21.2582 7.79724C21.216 7.72132 21.1826 7.64078 21.1588 7.55723L20.6779 7.6943L20.1971 7.83136C20.242 7.98874 20.3048 8.14042 20.3844 8.28342L20.8213 8.04033ZM25.2308 11.3844V10.8844C24.732 10.8844 24.5791 10.88 24.4426 10.8411L24.3056 11.3219L24.1685 11.8028C24.4706 11.8889 24.7884 11.8844 25.2308 11.8844V11.3844ZM23.2611 10.5685L22.9075 10.9221C23.2204 11.2349 23.4419 11.4628 23.7164 11.6155L23.9595 11.1786L24.2026 10.7417C24.0786 10.6727 23.9674 10.5677 23.6146 10.215L23.2611 10.5685ZM24.3056 11.3219L24.4426 10.8411C24.3591 10.8173 24.2786 10.7839 24.2026 10.7417L23.9595 11.1786L23.7164 11.6155C23.8594 11.6951 24.0111 11.7579 24.1685 11.8028L24.3056 11.3219ZM20.6154 16.2831L20.2619 15.9296L15.7131 20.4783L16.0667 20.8319L16.4202 21.1854L20.969 16.6367L20.6154 16.2831ZM11.168 15.9332L11.5215 16.2868L16.0703 11.738L15.7168 11.3844L15.3632 11.0309L10.8144 15.5797L11.168 15.9332ZM11.168 20.8319L11.5215 20.4783C11.0227 19.9796 10.6757 19.6316 10.4351 19.3366C10.1999 19.0481 10.103 18.8525 10.0669 18.6712L9.57655 18.7687L9.08616 18.8663C9.16722 19.2738 9.37463 19.6184 9.6601 19.9685C9.94026 20.3121 10.3304 20.7014 10.8144 21.1854L11.168 20.8319ZM11.168 15.9332L10.8144 15.5797C10.3304 16.0637 9.94026 16.453 9.6601 16.7966C9.37463 17.1467 9.16722 17.4913 9.08616 17.8988L9.57655 17.9964L10.0669 18.0939C10.103 17.9125 10.1999 17.717 10.4351 17.4285C10.6757 17.1335 11.0227 16.7855 11.5215 16.2868L11.168 15.9332ZM9.57655 18.7687L10.0669 18.6712C10.029 18.4806 10.029 18.2845 10.0669 18.0939L9.57655 17.9964L9.08616 17.8988C9.02264 18.2182 9.02264 18.5469 9.08616 18.8662L9.57655 18.7687ZM16.0667 20.8319L15.7131 20.4783C15.2143 20.9771 14.8664 21.3242 14.5714 21.5647C14.2829 21.8 14.0873 21.8968 13.9059 21.9329L14.0035 22.4233L14.101 22.9137C14.5085 22.8327 14.8532 22.6252 15.2033 22.3398C15.5469 22.0596 15.9361 21.6695 16.4202 21.1854L16.0667 20.8319ZM11.168 20.8319L10.8144 21.1854C11.2985 21.6695 11.6877 22.0596 12.0314 22.3398C12.3815 22.6252 12.7261 22.8327 13.1336 22.9137L13.2312 22.4233L13.3287 21.9329C13.1473 21.8968 12.9518 21.8 12.6633 21.5647C12.3682 21.3242 12.0203 20.9771 11.5215 20.4783L11.168 20.8319ZM14.0035 22.4233L13.9059 21.9329C13.7154 21.9708 13.5193 21.9708 13.3287 21.9329L13.2312 22.4233L13.1336 22.9137C13.453 22.9772 13.7817 22.9772 14.101 22.9137L14.0035 22.4233ZM15.077 10.4614L14.7234 10.8149L21.185 17.2764L21.5385 16.9229L21.8921 16.5693L15.4305 10.1078L15.077 10.4614ZM12.3077 22.1264L12.0171 21.7196L10.9376 22.4906L11.2282 22.8975L11.5189 23.3044L12.5984 22.5333L12.3077 22.1264ZM9.10235 20.7716L9.50922 21.0622L10.2803 19.9827L9.87343 19.6921L9.46656 19.4015L8.69549 20.481L9.10235 20.7716ZM9.26485 22.735L9.6184 22.3815C9.42274 22.1858 9.30155 22.0638 9.21889 21.9635C9.14198 21.8701 9.12997 21.8317 9.1261 21.8162L8.64088 21.9368L8.15566 22.0575C8.20945 22.2738 8.32067 22.4458 8.44694 22.5991C8.56747 22.7455 8.72942 22.9067 8.91129 23.0886L9.26485 22.735ZM9.10235 20.7716L8.69549 20.481C8.54599 20.6903 8.41274 20.8759 8.31791 21.0401C8.21857 21.2121 8.13714 21.4001 8.11964 21.6223L8.6181 21.6615L9.11655 21.7008C9.11781 21.6848 9.12335 21.645 9.18386 21.5402C9.24889 21.4276 9.34839 21.2874 9.50922 21.0622L9.10235 20.7716ZM8.64088 21.9368L9.1261 21.8162C9.11673 21.7785 9.11351 21.7395 9.11655 21.7008L8.6181 21.6615L8.11964 21.6223C8.10814 21.7683 8.1203 21.9153 8.15566 22.0575L8.64088 21.9368ZM11.2282 22.8975L10.9376 22.4907C10.7125 22.6515 10.5722 22.751 10.4596 22.816C10.3549 22.8765 10.3151 22.8821 10.2991 22.8833L10.3383 23.3818L10.3776 23.8802C10.5998 23.8627 10.7877 23.7813 10.9598 23.682C11.124 23.5871 11.3096 23.4539 11.5189 23.3044L11.2282 22.8975ZM9.26485 22.735L8.91129 23.0886C9.09317 23.2705 9.25435 23.4324 9.40072 23.5529C9.55406 23.6792 9.72606 23.7904 9.94238 23.8442L10.063 23.359L10.1837 22.8738C10.1681 22.8699 10.1298 22.8579 10.0364 22.781C9.93603 22.6983 9.81406 22.5771 9.6184 22.3815L9.26485 22.735ZM10.3383 23.3818L10.2991 22.8833C10.2604 22.8864 10.2214 22.8831 10.1837 22.8738L10.063 23.359L9.94238 23.8442C10.0846 23.8796 10.2315 23.8917 10.3776 23.8802L10.3383 23.3818ZM17.3847 12.3075L17.697 12.6979L21.9278 9.31332L21.6154 8.92289L21.3031 8.53245L17.0723 11.9171L17.3847 12.3075ZM21.6154 8.92289L21.9278 9.31332L22.3124 9.00563L22.0001 8.6152L21.6877 8.22476L21.3031 8.53245L21.6154 8.92289ZM19.6924 14.6152L20.0828 14.9275L23.4674 10.6968L23.077 10.3844L22.6865 10.0721L19.3019 14.3029L19.6924 14.6152ZM23.077 10.3844L23.4674 10.6968L23.7751 10.3122L23.3847 9.99981L22.9942 9.68747L22.6865 10.0721L23.077 10.3844ZM9.07698 22.9229L8.72343 22.5693L6.41573 24.877L6.76929 25.2306L7.12284 25.5841L9.43053 23.2764L9.07698 22.9229Z" fill="white"/>
</svg>
